<?xml version="1.0" encoding="UTF-8"?>
<!DOCTYPE svg PUBLIC "-//W3C//DTD SVG 1.1//EN" "http://www.w3.org/Graphics/SVG/1.1/DTD/svg11.dtd">
<svg version="1.2" width="55.03mm" height="13.03mm" viewBox="1373 773 5503 1303" preserveAspectRatio="xMidYMid" fill-rule="evenodd" stroke-width="28.222" stroke-linejoin="round" xmlns="http://www.w3.org/2000/svg" xmlns:ooo="http://xml.openoffice.org/svg/export" xmlns:xlink="http://www.w3.org/1999/xlink" xmlns:presentation="http://sun.com/xmlns/staroffice/presentation" xmlns:smil="http://www.w3.org/2001/SMIL20/" xmlns:anim="urn:oasis:names:tc:opendocument:xmlns:animation:1.0" xml:space="preserve">
 <defs class="EmbeddedBulletChars">
  <g id="bullet-char-template-57356" transform="scale(0.00048828125,-0.00048828125)">
   <path d="M 580,1141 L 1163,571 580,0 -4,571 580,1141 Z"/>
  </g>
  <g id="bullet-char-template-57354" transform="scale(0.00048828125,-0.00048828125)">
   <path d="M 8,1128 L 1137,1128 1137,0 8,0 8,1128 Z"/>
  </g>
  <g id="bullet-char-template-10146" transform="scale(0.00048828125,-0.00048828125)">
   <path d="M 174,0 L 602,739 174,1481 1456,739 174,0 Z M 1358,739 L 309,1346 659,739 1358,739 Z"/>
  </g>
  <g id="bullet-char-template-10132" transform="scale(0.00048828125,-0.00048828125)">
   <path d="M 2015,739 L 1276,0 717,0 1260,543 174,543 174,936 1260,936 717,1481 1274,1481 2015,739 Z"/>
  </g>
  <g id="bullet-char-template-10007" transform="scale(0.00048828125,-0.00048828125)">
   <path d="M 0,-2 C -7,14 -16,27 -25,37 L 356,567 C 262,823 215,952 215,954 215,979 228,992 255,992 264,992 276,990 289,987 310,991 331,999 354,1012 L 381,999 492,748 772,1049 836,1024 860,1049 C 881,1039 901,1025 922,1006 886,937 835,863 770,784 769,783 710,716 594,584 L 774,223 C 774,196 753,168 711,139 L 727,119 C 717,90 699,76 672,76 641,76 570,178 457,381 L 164,-76 C 142,-110 111,-127 72,-127 30,-127 9,-110 8,-76 1,-67 -2,-52 -2,-32 -2,-23 -1,-13 0,-2 Z"/>
  </g>
  <g id="bullet-char-template-10004" transform="scale(0.00048828125,-0.00048828125)">
   <path d="M 285,-33 C 182,-33 111,30 74,156 52,228 41,333 41,471 41,549 55,616 82,672 116,743 169,778 240,778 293,778 328,747 346,684 L 369,508 C 377,444 397,411 428,410 L 1163,1116 C 1174,1127 1196,1133 1229,1133 1271,1133 1292,1118 1292,1087 L 1292,965 C 1292,929 1282,901 1262,881 L 442,47 C 390,-6 338,-33 285,-33 Z"/>
  </g>
  <g id="bullet-char-template-9679" transform="scale(0.00048828125,-0.00048828125)">
   <path d="M 813,0 C 632,0 489,54 383,161 276,268 223,411 223,592 223,773 276,916 383,1023 489,1130 632,1184 813,1184 992,1184 1136,1130 1245,1023 1353,916 1407,772 1407,592 1407,412 1353,268 1245,161 1136,54 992,0 813,0 Z"/>
  </g>
  <g id="bullet-char-template-8226" transform="scale(0.00048828125,-0.00048828125)">
   <path d="M 346,457 C 273,457 209,483 155,535 101,586 74,649 74,723 74,796 101,859 155,911 209,963 273,989 346,989 419,989 480,963 531,910 582,859 608,796 608,723 608,648 583,586 532,535 482,483 420,457 346,457 Z"/>
  </g>
  <g id="bullet-char-template-8211" transform="scale(0.00048828125,-0.00048828125)">
   <path d="M -4,459 L 1135,459 1135,606 -4,606 -4,459 Z"/>
  </g>
  <g id="bullet-char-template-61548" transform="scale(0.00048828125,-0.00048828125)">
   <path d="M 173,740 C 173,903 231,1043 346,1159 462,1274 601,1332 765,1332 928,1332 1067,1274 1183,1159 1299,1043 1357,903 1357,740 1357,577 1299,437 1183,322 1067,206 928,148 765,148 601,148 462,206 346,322 231,437 173,577 173,740 Z"/>
  </g>
 </defs>
 <g class="Page">
  <g class="com.sun.star.drawing.ClosedBezierShape">
   <g id="id3">
    <rect class="BoundingBox" stroke="none" fill="none" x="1373" y="773" width="5503" height="1303"/>
    <path fill="rgb(36,73,88)" stroke="none" d="M 1374,2074 C 1374,1641 1374,1207 1374,774 3207,774 5041,774 6874,774 6874,1207 6874,1641 6874,2074 5041,2074 3207,2074 1374,2074 Z"/>
    <path fill="none" stroke="rgb(52,101,164)" d="M 1374,2074 L 1374,774 6874,774 6874,2074 1374,2074 Z"/>
   </g>
  </g>
  <g class="Group">
   <g class="com.sun.star.drawing.ClosedBezierShape">
    <g id="id4">
     <rect class="BoundingBox" stroke="none" fill="none" x="1769" y="896" width="809" height="1056"/>
     <path fill="rgb(250,117,3)" stroke="none" d="M 2173,897 L 2173,897 C 2178,897 2184,897 2190,898 2196,898 2202,898 2208,899 2214,899 2220,900 2226,901 2232,902 2238,903 2243,904 2249,905 2255,906 2260,908 2266,909 2272,910 2277,912 2283,913 2289,915 2294,917 2300,918 2305,920 2310,922 2316,924 2321,926 2326,928 2332,930 2337,932 2342,935 2347,937 2352,940 2357,943 2362,945 2367,948 2372,951 2378,954 2383,957 2388,960 2393,963 2398,966 2402,970 2407,973 2411,976 2415,980 2420,983 2425,986 2429,990 2434,993 2438,997 2442,1001 2446,1005 2450,1009 2454,1013 2459,1017 2463,1021 2467,1026 2471,1030 2475,1034 2478,1038 2482,1042 2486,1046 2489,1051 2493,1055 2496,1060 2499,1065 2503,1070 2506,1075 2509,1080 2512,1084 2515,1089 2518,1094 2521,1099 2524,1104 2527,1109 2530,1114 2533,1119 2535,1125 2538,1130 2540,1135 2542,1141 2545,1146 2547,1151 2549,1157 2551,1162 2553,1168 2555,1174 2557,1179 2559,1185 2560,1191 2562,1197 2564,1203 2565,1209 2567,1214 2568,1220 2569,1226 L 2569,1226 C 2570,1232 2571,1238 2572,1245 2573,1251 2574,1257 2574,1264 2574,1270 2575,1276 2575,1283 2575,1289 2576,1295 2576,1302 2576,1308 2575,1314 2575,1321 2575,1327 2574,1333 2574,1339 2574,1345 2573,1351 2572,1357 2571,1363 2570,1369 2569,1375 2568,1381 2567,1387 2565,1394 2564,1399 2563,1405 2561,1411 2559,1417 2557,1423 2555,1428 2553,1434 2551,1440 2549,1445 2547,1451 2545,1457 2542,1462 2540,1468 2537,1473 2534,1478 2532,1484 2529,1489 2526,1494 2523,1500 2520,1506 2516,1511 2513,1516 2510,1521 2507,1526 2504,1531 2500,1536 2496,1540 2493,1545 2489,1550 2485,1555 2481,1560 2477,1565 2473,1569 2469,1574 2465,1578 2461,1582 2457,1587 2452,1591 2447,1595 2443,1599 2439,1603 2434,1607 2430,1611 2425,1615 2420,1619 2415,1623 2410,1627 2405,1630 2400,1634 2395,1638 2390,1641 2385,1644 2379,1647 2373,1650 2368,1653 2363,1656 2357,1659 2352,1662 2346,1665 2340,1667 2335,1670 2329,1673 2323,1675 2317,1678 2311,1680 2305,1682 2299,1684 2293,1686 2286,1688 L 2286,1688 C 2285,1689 2284,1689 2283,1689 2282,1690 2281,1690 2280,1690 2279,1691 2278,1692 2277,1692 2277,1693 2276,1694 2275,1694 2275,1695 2274,1696 2273,1696 2273,1697 2273,1698 2272,1698 2272,1699 2271,1700 2270,1701 2270,1702 2270,1703 2269,1704 L 2269,1704 C 2256,1743 2243,1781 2230,1819 2217,1858 2204,1896 2191,1934 L 2191,1934 C 2191,1936 2190,1937 2189,1938 2189,1940 2188,1941 2187,1942 2186,1943 2185,1944 2184,1945 2184,1946 2183,1947 2182,1947 2181,1948 2180,1949 2179,1949 2178,1950 2177,1950 2176,1950 2175,1950 2174,1950 2173,1950 2172,1950 2171,1950 2170,1950 L 2170,1950 C 2169,1950 2168,1950 2167,1949 2166,1949 2165,1948 2164,1947 2163,1947 2162,1947 2162,1946 2161,1946 2160,1945 2160,1944 2159,1944 2158,1943 2158,1942 2157,1941 2157,1940 2157,1939 2156,1938 2155,1936 2155,1934 L 2155,1934 C 2141,1896 2128,1858 2115,1819 2102,1781 2089,1743 2077,1704 L 2077,1704 C 2076,1703 2075,1702 2075,1701 2074,1700 2074,1699 2074,1698 2073,1698 2072,1697 2072,1696 2071,1696 2070,1695 2070,1694 2069,1694 2068,1693 2068,1692 2067,1692 2066,1691 2065,1690 2063,1690 2061,1689 2059,1688 L 2059,1688 C 2054,1687 2049,1685 2044,1683 2039,1681 2034,1679 2030,1677 2025,1675 2020,1673 2016,1671 2011,1669 2006,1667 2002,1665 1997,1663 1993,1661 1989,1659 1984,1657 1980,1655 1976,1652 1972,1650 1968,1648 1964,1645 1960,1643 1956,1641 1952,1638 1948,1636 1944,1633 1940,1630 1936,1628 1932,1625 1929,1622 1925,1620 1921,1617 1918,1614 1914,1611 1910,1608 1907,1605 1903,1602 1899,1599 1896,1596 1893,1593 1890,1590 1887,1587 1883,1584 1880,1581 1877,1577 1874,1574 1871,1571 1868,1567 1865,1564 1862,1561 1859,1557 1856,1554 1853,1550 1851,1546 1848,1543 1845,1539 1843,1535 1840,1532 1838,1528 1836,1524 1833,1520 1831,1516 1829,1512 1826,1508 1824,1504 1822,1500 1819,1496 1817,1492 1815,1488 1813,1484 1811,1480 1809,1475 1807,1471 1805,1467 1803,1462 1801,1458 1799,1454 1798,1449 1796,1445 1794,1440 1793,1435 1791,1431 1790,1426 1789,1422 1787,1417 1786,1412 1785,1408 1783,1403 1782,1398 1781,1394 1780,1389 1779,1384 1778,1379 1777,1373 1776,1368 1776,1363 L 1776,1363 C 1775,1357 1774,1351 1773,1346 1772,1340 1772,1334 1771,1329 1771,1323 1770,1317 1770,1311 1770,1305 1770,1299 1770,1294 1770,1288 1771,1282 1771,1277 1771,1271 1772,1266 1772,1261 1773,1255 1773,1249 1774,1244 1774,1238 1775,1232 1776,1227 1777,1221 1778,1216 1780,1211 1781,1205 1782,1199 1784,1194 1785,1189 1786,1184 1788,1179 1789,1173 1791,1168 1793,1163 1795,1158 1797,1153 1799,1148 1801,1142 1803,1137 1806,1132 1808,1127 1810,1122 1813,1118 1815,1113 1818,1108 1821,1103 1824,1098 1827,1093 1830,1089 1833,1084 1836,1079 1839,1075 1842,1070 1845,1066 1848,1062 1851,1057 1854,1053 1858,1049 1861,1044 1865,1040 1869,1036 1872,1032 1876,1028 1880,1024 1884,1020 1888,1016 1892,1012 1896,1008 1900,1004 1905,1000 1909,996 1913,993 1917,990 1921,986 1925,982 1930,979 1934,975 1939,972 1944,969 1948,966 1953,963 1958,960 1963,957 1968,954 1973,951 1978,948 1983,945 1989,943 1994,940 1999,937 2004,935 2009,932 2014,930 2020,928 L 2020,928 C 2026,925 2032,923 2038,921 2044,919 2050,917 2057,915 2063,913 2069,911 2076,910 2082,908 2088,906 2095,905 2101,904 2107,903 2114,902 2120,901 2126,900 2133,900 2139,899 2146,898 2153,898 2159,897 2166,897 2173,897 Z M 2172,1873 L 2172,1873 C 2172,1873 2173,1873 2174,1872 L 2174,1872 C 2174,1870 2175,1867 2176,1864 L 2176,1864 C 2187,1833 2198,1802 2208,1770 2219,1739 2230,1708 2240,1677 L 2240,1677 C 2241,1676 2242,1675 2242,1673 2243,1672 2244,1671 2244,1669 2245,1668 2246,1667 2246,1666 2247,1666 2248,1665 2248,1664 2249,1663 2250,1662 2251,1661 2252,1661 2253,1660 2254,1659 2256,1659 2257,1659 2258,1658 2260,1658 2261,1658 2262,1657 L 2262,1657 C 2269,1655 2275,1653 2281,1651 2287,1649 2293,1647 2298,1645 2304,1643 2310,1641 2316,1639 2322,1637 2328,1634 2333,1631 2339,1628 2345,1625 2350,1622 2355,1619 2360,1616 2365,1613 2371,1610 2376,1607 2381,1603 2386,1600 2391,1596 2396,1592 2401,1589 2406,1585 2410,1581 2415,1577 2419,1573 2423,1569 2428,1565 2432,1561 2436,1556 2440,1552 2444,1547 2448,1542 2452,1538 2456,1534 2460,1529 2464,1524 2468,1519 2471,1514 2475,1510 2478,1505 2481,1500 2484,1495 2487,1490 2490,1484 2493,1479 2496,1474 2499,1468 2502,1463 2504,1458 2506,1452 2509,1447 2511,1441 2513,1435 2516,1430 2518,1424 2520,1419 2522,1413 2524,1407 2525,1402 2527,1396 2528,1390 2529,1384 2531,1378 2532,1372 2533,1366 2534,1360 2535,1354 2536,1348 2537,1342 2538,1336 2538,1330 2539,1323 2539,1317 2539,1311 2539,1305 2539,1299 2539,1293 2539,1286 2539,1280 2538,1274 2538,1267 2537,1261 2536,1255 2535,1248 2534,1242 2533,1236 2532,1229 2531,1223 2529,1217 2528,1210 2526,1203 2524,1197 L 2524,1197 C 2523,1191 2521,1186 2519,1181 2517,1176 2515,1171 2513,1166 2511,1161 2509,1156 2506,1151 2504,1145 2502,1140 2499,1135 2497,1130 2495,1125 2492,1121 2489,1116 2486,1111 2483,1107 2480,1102 2477,1097 2474,1093 2471,1088 2468,1084 2465,1080 2462,1075 2459,1071 2455,1067 2452,1063 2448,1059 2444,1055 2441,1051 2437,1047 2433,1044 2430,1040 2426,1036 2422,1032 2418,1028 2414,1025 2410,1022 2406,1018 2402,1014 2398,1011 2394,1008 2390,1005 2385,1002 2381,999 2376,996 2371,993 2367,990 2363,987 2358,985 2354,982 2349,979 2344,977 2340,974 2335,972 2330,970 2325,967 2320,965 2315,963 2311,961 2306,959 2301,957 2296,955 2291,953 2285,951 2280,949 2275,948 2270,947 2265,945 2260,944 2254,943 2249,942 2244,941 2238,940 2233,939 2228,938 2223,937 2218,936 2212,935 2206,935 2201,934 2196,934 2190,934 2185,934 2179,934 2174,934 2168,934 2163,934 2158,934 2152,934 2146,934 2141,935 2135,935 2129,936 2124,937 L 2124,937 C 2118,938 2113,939 2108,940 2102,941 2096,942 2091,943 2085,944 2080,945 2075,947 2070,948 2065,950 2060,952 2054,953 2049,955 2044,957 2039,959 2034,961 2029,963 2024,965 2019,967 2014,970 2009,972 2004,974 2000,977 1995,979 1990,982 1986,985 1981,987 1976,990 1972,993 1967,996 1963,999 1959,1003 1954,1006 1950,1009 1946,1012 1942,1015 1938,1019 1934,1023 1930,1027 1926,1031 1922,1035 1918,1038 1914,1042 1910,1046 1906,1050 1902,1054 1898,1059 L 1898,1059 C 1893,1064 1888,1069 1884,1075 1879,1081 1875,1087 1871,1093 1867,1098 1863,1104 1860,1110 1856,1116 1852,1122 1849,1128 1846,1134 1843,1140 1840,1146 1837,1152 1834,1158 1832,1165 1829,1171 1827,1177 1825,1183 1823,1189 1821,1196 1819,1203 1817,1209 1815,1215 1813,1222 1812,1225 1811,1228 1811,1232 1810,1235 1810,1238 1810,1242 1809,1245 1808,1248 1808,1252 1807,1255 1807,1258 1807,1262 1806,1265 1806,1268 1806,1272 1806,1275 1806,1278 1806,1282 1806,1289 1806,1296 1806,1303 1806,1310 1806,1317 1807,1324 1807,1331 1808,1338 1809,1345 1810,1352 1811,1359 1813,1366 L 1813,1366 C 1813,1370 1814,1375 1815,1380 1816,1384 1817,1389 1819,1394 1820,1398 1821,1402 1823,1407 1824,1411 1825,1415 1827,1420 1828,1424 1829,1428 1831,1432 1832,1437 1834,1441 1836,1445 1837,1449 1839,1453 1841,1457 1843,1461 1845,1465 1847,1469 1848,1473 1850,1477 1852,1480 1854,1484 1856,1488 1859,1491 1861,1495 1863,1499 1865,1503 1867,1507 1869,1510 1872,1513 1874,1517 1876,1520 1879,1523 1881,1527 1884,1530 1887,1533 1889,1537 1892,1540 1895,1543 1898,1546 1901,1549 1904,1552 1906,1555 1909,1558 1912,1561 1915,1564 1918,1567 1921,1570 1924,1573 1927,1576 1931,1578 1934,1581 1937,1584 1940,1586 1943,1589 1946,1592 1950,1594 1953,1597 1957,1599 1961,1601 1964,1604 1967,1606 1971,1608 1975,1610 1979,1612 1983,1614 1986,1617 1990,1619 1994,1621 1998,1623 2002,1625 2006,1627 2010,1629 2014,1631 2018,1633 2022,1635 2026,1637 2031,1638 2035,1640 2039,1642 2043,1643 2047,1645 2051,1647 2056,1648 2060,1650 2065,1652 2070,1653 2074,1655 2079,1656 2084,1657 L 2084,1657 C 2085,1658 2086,1658 2088,1658 2089,1659 2090,1660 2091,1660 2092,1661 2093,1662 2095,1662 2095,1663 2096,1664 2097,1664 2098,1665 2099,1666 2100,1666 2100,1667 2101,1668 2102,1669 2102,1671 2103,1672 2104,1673 2104,1675 2104,1676 2105,1677 L 2105,1677 C 2112,1700 2120,1723 2128,1746 2136,1769 2144,1792 2152,1814 L 2152,1814 C 2158,1834 2165,1854 2172,1873 Z"/>
    </g>
   </g>
   <g class="com.sun.star.drawing.ClosedBezierShape">
    <g id="id5">
     <rect class="BoundingBox" stroke="none" fill="none" x="1839" y="966" width="668" height="670"/>
     <path fill="rgb(250,117,3)" stroke="none" d="M 2173,967 L 2173,967 C 2178,967 2184,967 2189,967 2195,967 2201,968 2206,969 2212,969 2218,970 2223,971 2229,972 2234,973 2239,974 2245,975 2250,976 2255,977 2260,978 2265,980 2270,982 2276,983 2281,985 2286,987 2291,989 2296,991 2301,993 2306,995 2311,997 2316,999 2321,1001 2326,1004 2330,1007 2335,1009 2340,1012 2344,1015 2349,1018 2353,1021 2357,1024 2362,1027 2366,1030 2370,1033 2375,1036 2379,1039 2383,1043 2387,1046 2391,1049 2395,1053 2399,1056 2403,1060 2407,1064 2411,1067 2415,1071 2418,1075 2422,1079 2425,1083 2428,1088 2432,1092 2435,1096 2438,1100 2441,1104 2444,1108 2447,1113 2450,1117 2453,1122 2456,1127 2459,1131 2462,1136 2465,1141 2468,1145 2470,1150 2472,1155 2475,1160 2477,1165 2479,1170 2481,1175 2483,1180 2485,1185 2487,1190 2489,1195 2490,1201 2492,1206 2493,1211 2494,1216 2496,1221 2497,1226 2498,1232 2499,1237 2500,1242 2501,1248 2502,1253 2503,1259 2503,1265 2504,1270 2505,1276 2505,1282 2505,1287 2505,1293 2505,1299 L 2505,1299 C 2505,1304 2505,1310 2505,1316 2505,1322 2504,1328 2503,1334 2503,1339 2502,1344 2501,1350 2500,1355 2499,1361 2498,1367 2497,1372 2496,1377 2495,1383 2494,1388 2492,1393 2490,1399 2489,1404 2487,1409 2485,1415 2483,1420 2481,1424 2479,1429 2477,1434 2475,1439 2473,1444 2471,1449 2469,1454 2466,1458 2463,1463 2460,1468 2457,1472 2455,1477 2452,1482 2449,1486 2446,1491 2443,1495 2439,1499 2436,1504 2433,1508 2430,1512 2427,1516 2423,1520 2419,1524 2416,1528 2412,1532 2408,1535 2405,1539 2401,1543 2397,1546 2393,1550 2389,1554 2385,1557 2381,1561 2377,1564 2372,1567 2368,1570 2364,1573 2359,1576 2355,1579 2351,1582 2346,1585 2342,1588 2337,1591 2332,1593 2327,1596 2322,1598 2317,1600 2313,1603 2308,1605 2303,1607 2298,1609 2293,1611 2287,1613 2282,1615 2277,1617 2272,1619 2267,1621 2262,1622 2256,1623 2251,1625 2246,1626 2240,1627 2235,1628 2230,1629 2224,1630 2219,1631 2213,1632 2207,1632 2202,1633 2196,1633 2190,1633 2185,1634 2179,1634 2174,1634 L 2174,1634 C 2168,1634 2162,1634 2157,1633 2151,1633 2145,1633 2140,1632 2134,1632 2128,1631 2123,1630 2117,1629 2112,1628 2107,1627 2101,1626 2096,1625 2091,1623 2085,1622 2080,1621 2075,1619 2070,1617 2065,1615 2060,1613 2054,1611 2049,1609 2044,1607 2039,1605 2034,1603 2030,1601 2025,1599 2020,1597 2015,1594 2010,1592 2005,1589 2001,1586 1996,1583 1992,1580 1988,1577 1983,1574 1979,1571 1975,1568 1970,1565 1966,1562 1962,1558 1958,1555 1954,1551 1950,1547 1946,1544 1942,1540 1938,1536 1934,1533 1931,1529 1928,1525 1924,1521 1920,1517 1917,1513 1913,1509 1910,1505 1907,1501 1904,1497 1901,1492 1898,1487 1895,1483 1892,1479 1889,1474 1886,1470 1883,1465 1881,1460 1878,1456 1876,1451 1874,1446 1871,1441 1869,1436 1867,1431 1865,1426 1863,1422 1861,1417 1859,1411 1857,1406 1856,1401 1854,1396 1852,1391 1851,1386 1849,1380 1848,1374 1847,1369 1846,1363 1845,1358 1844,1353 1843,1347 1842,1342 1842,1337 1841,1331 1841,1325 1841,1320 1840,1314 1840,1308 1840,1302 L 1840,1302 C 1840,1296 1840,1290 1841,1285 1841,1279 1841,1273 1842,1268 1842,1262 1843,1256 1844,1251 1845,1245 1846,1240 1847,1235 1848,1229 1849,1224 1851,1219 1852,1213 1853,1208 1855,1203 1856,1197 1858,1192 1860,1187 1862,1182 1864,1177 1866,1172 1868,1167 1870,1162 1873,1157 1875,1152 1877,1147 1880,1143 1882,1138 1885,1133 1888,1128 1890,1123 1893,1119 1896,1115 1899,1110 1902,1106 1906,1102 1909,1097 1912,1093 1916,1089 1919,1085 1922,1081 1926,1077 1929,1073 1933,1069 1937,1065 1941,1061 1945,1057 1949,1054 1953,1050 1957,1047 1961,1044 1965,1040 1969,1037 1973,1034 1977,1031 1982,1028 1987,1025 1991,1021 1995,1018 2000,1015 2004,1012 2009,1009 2014,1007 2018,1004 2023,1002 2028,1000 2033,997 2038,995 2043,993 2048,991 2053,989 2058,987 2063,985 2068,983 2074,982 2079,980 2084,979 2090,978 2095,976 2100,975 2106,974 2111,973 2116,972 2122,971 2127,970 2133,969 2139,969 2144,968 2150,968 2156,968 2161,967 2167,967 2173,967 Z M 2173,1597 L 2173,1597 C 2177,1597 2182,1597 2187,1597 2192,1597 2197,1597 2202,1596 2207,1596 2212,1595 2216,1594 2221,1593 2226,1592 2231,1591 2236,1590 2241,1589 2246,1588 2251,1587 2256,1586 2260,1584 2265,1583 2269,1581 2273,1579 2278,1578 2283,1576 2287,1574 2292,1572 2296,1570 2300,1568 2305,1566 2309,1564 2313,1562 2317,1560 2321,1557 2325,1554 2329,1552 2333,1550 2337,1547 2341,1545 2345,1542 2349,1539 2353,1536 2357,1533 2360,1530 2364,1527 2368,1524 2371,1521 2375,1518 2379,1515 2382,1511 2385,1508 2388,1505 2391,1501 2395,1498 2398,1494 2401,1490 2404,1487 2407,1483 2410,1479 2413,1475 2416,1471 2418,1467 2421,1464 2424,1460 2426,1456 2429,1452 2431,1448 2433,1443 2435,1439 2437,1435 2439,1430 2441,1426 2443,1422 2445,1418 2447,1413 2449,1409 2451,1405 2453,1400 2454,1395 2455,1391 2457,1386 2458,1381 2459,1377 2461,1372 2462,1367 2463,1363 2464,1358 2465,1353 2466,1348 2467,1343 2468,1338 2468,1334 2469,1329 2469,1324 2469,1319 2470,1313 2470,1308 2470,1303 L 2470,1303 C 2470,1298 2470,1293 2469,1288 2469,1283 2469,1278 2468,1273 2468,1268 2467,1263 2466,1258 2466,1253 2465,1248 2464,1243 2463,1238 2462,1233 2461,1229 2460,1224 2458,1219 2456,1215 2455,1210 2454,1205 2452,1201 2450,1196 2448,1191 2446,1187 2445,1182 2443,1178 2441,1174 2439,1169 2437,1165 2434,1161 2432,1157 2430,1153 2427,1149 2425,1144 2422,1140 2419,1136 2417,1132 2414,1128 2411,1124 2409,1120 2406,1116 2403,1113 2400,1109 2397,1105 2393,1102 2390,1098 2387,1095 2384,1092 2381,1088 2377,1085 2373,1082 2370,1078 2366,1075 2362,1072 2359,1069 2355,1066 2351,1063 2348,1060 2344,1057 2340,1055 2336,1052 2332,1049 2328,1047 2324,1044 2320,1042 2315,1040 2311,1038 2307,1036 2303,1034 2299,1032 2294,1030 2289,1028 2285,1026 2281,1024 2276,1022 2272,1020 2267,1018 2262,1017 2258,1015 2253,1014 2248,1013 2244,1012 2239,1011 2234,1010 2229,1009 2224,1008 2219,1007 2214,1006 2209,1005 2204,1005 2199,1004 2194,1004 2189,1004 2184,1003 2179,1003 2174,1003 L 2174,1003 C 2170,1003 2165,1003 2160,1004 2155,1004 2150,1004 2145,1005 2139,1005 2134,1006 2129,1007 2124,1007 2119,1008 2115,1009 2110,1010 2105,1011 2101,1012 2096,1013 2091,1014 2087,1016 2082,1017 2077,1019 2073,1021 2068,1023 2063,1025 2059,1027 2054,1028 2050,1030 2046,1032 2041,1034 2037,1036 2033,1039 2029,1041 2025,1043 2021,1046 2017,1048 2013,1051 2009,1054 2005,1056 2001,1059 1997,1062 1993,1064 1989,1067 1986,1070 1982,1073 1978,1076 1974,1080 1970,1083 1967,1086 1964,1090 1960,1093 1957,1096 1954,1100 1951,1103 1948,1107 1945,1111 1942,1114 1939,1118 1936,1122 1933,1125 1930,1129 1928,1133 1925,1137 1922,1141 1920,1146 1917,1150 1915,1154 1913,1158 1910,1162 1908,1166 1906,1171 1904,1175 1902,1179 1900,1184 1898,1188 1896,1192 1894,1197 1892,1201 1891,1206 1890,1211 1888,1215 1887,1220 1886,1225 1884,1229 1883,1234 1882,1239 1881,1244 1880,1249 1880,1254 1879,1259 1878,1264 1878,1269 1877,1274 1876,1279 1876,1284 1876,1289 1876,1294 1876,1299 L 1876,1299 C 1876,1304 1876,1309 1876,1314 1876,1319 1876,1324 1877,1330 1877,1335 1878,1340 1879,1345 1880,1349 1881,1354 1882,1359 1883,1364 1884,1369 1885,1374 1886,1378 1887,1383 1889,1388 1890,1392 1891,1397 1893,1402 1895,1406 1897,1410 1899,1415 1901,1419 1903,1424 1905,1428 1907,1433 1909,1437 1912,1441 1914,1445 1916,1449 1919,1453 1921,1457 1923,1461 1926,1465 1928,1469 1931,1473 1934,1477 1937,1481 1940,1485 1943,1488 1946,1492 1949,1496 1952,1499 1955,1503 1958,1506 1962,1509 1965,1513 1968,1516 1972,1519 1976,1523 1980,1526 1984,1529 1987,1532 1991,1535 1995,1537 1998,1540 2002,1543 2006,1546 2010,1549 2014,1551 2018,1553 2022,1556 2026,1559 2031,1561 2035,1563 2039,1565 2043,1567 2047,1569 2051,1571 2056,1573 2060,1575 2065,1577 2070,1579 2074,1581 2079,1582 2084,1583 2088,1585 2093,1586 2098,1587 2102,1589 2107,1590 2112,1591 2117,1592 2122,1593 2127,1593 2132,1594 2137,1595 2142,1595 2147,1596 2152,1596 2157,1596 2162,1597 2167,1597 2173,1597 Z"/>
    </g>
   </g>
   <g class="com.sun.star.drawing.ClosedBezierShape">
    <g id="id6">
     <rect class="BoundingBox" stroke="none" fill="none" x="1962" y="1113" width="423" height="383"/>
     <path fill="rgb(250,117,3)" stroke="none" d="M 2128,1248 L 2128,1248 C 2092,1212 2056,1176 2020,1141 L 2020,1141 C 2029,1132 2038,1124 2048,1116 L 2048,1116 C 2089,1157 2130,1199 2172,1241 L 2172,1241 C 2214,1198 2256,1156 2298,1114 L 2298,1114 C 2307,1122 2316,1131 2325,1140 L 2325,1140 C 2290,1175 2254,1210 2218,1246 L 2218,1246 C 2219,1246 2219,1247 2219,1248 L 2219,1248 C 2223,1248 2226,1248 2229,1248 L 2229,1248 C 2272,1248 2315,1248 2358,1248 L 2358,1248 C 2361,1248 2363,1248 2365,1249 2367,1249 2369,1249 2371,1250 2372,1250 2373,1250 2373,1251 2374,1251 2375,1251 2375,1252 2376,1252 2377,1252 2377,1253 2378,1253 2378,1253 2378,1254 2379,1254 2380,1255 2380,1256 2381,1257 2381,1258 2381,1259 2382,1259 2382,1260 2382,1261 2382,1261 2382,1262 2382,1263 2383,1265 2383,1267 2383,1269 2383,1271 2383,1273 2382,1276 L 2382,1276 C 2371,1342 2360,1409 2348,1475 L 2348,1475 C 2348,1477 2348,1479 2347,1480 2347,1482 2346,1483 2345,1484 2345,1485 2345,1486 2344,1487 2343,1488 2342,1489 2341,1490 2340,1491 2339,1492 2338,1492 2337,1493 2336,1493 2334,1493 2333,1494 2332,1494 2330,1494 2329,1494 2327,1494 2325,1494 L 2325,1494 C 2299,1494 2273,1494 2247,1494 L 2247,1494 C 2173,1494 2098,1494 2023,1494 L 2023,1494 C 2021,1494 2019,1494 2017,1494 2015,1494 2013,1494 2012,1493 2010,1493 2009,1493 2008,1492 2006,1492 2005,1491 2004,1490 2003,1489 2002,1488 2002,1487 2001,1486 2000,1485 2000,1483 1999,1482 1998,1480 1998,1478 1997,1476 1997,1474 1997,1472 L 1997,1472 C 1991,1439 1985,1407 1980,1374 1974,1341 1969,1308 1964,1275 L 1964,1275 C 1963,1273 1963,1271 1963,1269 1963,1267 1963,1265 1963,1263 1963,1262 1963,1261 1964,1261 1964,1260 1964,1259 1964,1259 1964,1258 1964,1257 1965,1256 1965,1255 1966,1254 1967,1254 1967,1253 1967,1253 1968,1253 1968,1252 1969,1252 1970,1252 1971,1251 1972,1250 1974,1250 1976,1249 1978,1249 1980,1249 1982,1248 1984,1248 1987,1248 L 1987,1248 C 2034,1248 2081,1248 2128,1248 Z M 2002,1285 L 2002,1285 C 2003,1290 2004,1295 2005,1300 2005,1304 2006,1308 2007,1313 L 2007,1313 C 2007,1313 2007,1314 2008,1315 2008,1315 2008,1315 2009,1316 2009,1316 2010,1317 2011,1318 2011,1318 2012,1318 2013,1319 L 2013,1319 C 2021,1319 2029,1319 2037,1319 2045,1318 2053,1318 2062,1318 L 2062,1318 C 2062,1318 2062,1318 2063,1318 2063,1317 2063,1317 2064,1317 2064,1316 2065,1315 2066,1315 2066,1314 2066,1313 2067,1312 2067,1311 2067,1311 2068,1311 2068,1310 2068,1310 2068,1310 L 2068,1310 C 2068,1309 2068,1308 2068,1307 2068,1305 2068,1304 2068,1303 2068,1300 2068,1298 2069,1296 2069,1294 2069,1293 2069,1292 2068,1291 2068,1290 2068,1289 2067,1288 2067,1288 2067,1288 2066,1287 2066,1287 2066,1287 2065,1286 2065,1286 2065,1286 2064,1286 2063,1286 2063,1286 L 2063,1286 C 2060,1285 2057,1285 2055,1285 2052,1284 2050,1284 2048,1284 2043,1284 2038,1284 2033,1284 2028,1284 2023,1284 2018,1285 2012,1285 2007,1285 2002,1285 Z M 2343,1285 L 2343,1285 C 2330,1285 2316,1285 2302,1285 L 2302,1285 C 2299,1285 2296,1285 2293,1285 2291,1285 2289,1285 2287,1285 2286,1285 2285,1285 2283,1286 2283,1286 2282,1286 2281,1287 2281,1287 2281,1287 2280,1288 2280,1288 2280,1288 2279,1289 2279,1289 2279,1290 2278,1291 2278,1292 2278,1294 2277,1296 2277,1298 2277,1300 2277,1302 2277,1305 2277,1308 2277,1311 L 2277,1311 C 2277,1311 2277,1311 2277,1312 L 2277,1312 C 2277,1312 2277,1312 2277,1313 2278,1313 2278,1314 2278,1315 2278,1315 2278,1315 2278,1316 2279,1316 2279,1316 2279,1317 2280,1317 2280,1317 2280,1318 2281,1318 2281,1318 2281,1319 2283,1319 2284,1319 2285,1319 L 2285,1319 C 2293,1319 2301,1319 2308,1319 2316,1319 2324,1319 2331,1319 L 2331,1319 C 2332,1318 2333,1318 2333,1318 2334,1317 2335,1316 2336,1316 2337,1315 2337,1314 2337,1314 2338,1313 2338,1313 2338,1313 L 2338,1313 C 2339,1310 2340,1308 2340,1306 2341,1304 2341,1302 2341,1300 2342,1295 2343,1290 2343,1285 Z M 2068,1388 L 2068,1388 C 2068,1383 2068,1378 2068,1374 2068,1369 2068,1365 2068,1361 L 2068,1361 C 2067,1360 2067,1359 2067,1359 2066,1358 2066,1357 2066,1357 2065,1356 2065,1356 2065,1356 2064,1355 2064,1355 2064,1355 L 2064,1355 C 2055,1355 2047,1355 2039,1355 2030,1355 2022,1355 2014,1355 L 2014,1355 C 2015,1366 2017,1377 2019,1388 L 2019,1388 C 2035,1388 2051,1388 2068,1388 Z M 2277,1389 L 2277,1389 C 2285,1389 2293,1389 2300,1389 2307,1388 2314,1388 2321,1388 L 2321,1388 C 2322,1388 2323,1388 2323,1388 2324,1387 2324,1387 2324,1387 2325,1386 2326,1386 2326,1386 2326,1385 2326,1385 2326,1385 L 2326,1385 C 2327,1380 2328,1375 2329,1370 2330,1365 2331,1360 2331,1355 L 2331,1355 C 2323,1355 2315,1355 2307,1355 2300,1355 2292,1355 2284,1355 L 2284,1355 C 2284,1355 2283,1355 2282,1355 2282,1355 2281,1356 2280,1357 2280,1357 2279,1358 2278,1359 2278,1359 2278,1359 2278,1360 L 2278,1360 C 2278,1362 2278,1364 2277,1367 2277,1369 2277,1371 2277,1374 2277,1379 2277,1384 2277,1389 Z M 2155,1319 L 2155,1319 C 2155,1314 2155,1309 2155,1304 2155,1302 2155,1300 2155,1298 2155,1296 2155,1294 2155,1292 L 2155,1292 C 2154,1291 2154,1290 2154,1290 2153,1289 2152,1288 2152,1288 2151,1287 2151,1286 2151,1286 2150,1285 2149,1285 2149,1285 L 2149,1285 C 2142,1285 2135,1285 2129,1285 2122,1285 2116,1285 2110,1285 L 2110,1285 C 2109,1285 2108,1285 2108,1286 2107,1286 2106,1286 2106,1287 2105,1287 2105,1288 2105,1289 2104,1289 2104,1289 2104,1290 L 2104,1290 C 2104,1292 2104,1294 2104,1296 2103,1298 2103,1300 2103,1302 2103,1305 2103,1309 2104,1313 L 2104,1313 C 2104,1313 2104,1314 2104,1315 2104,1315 2105,1315 2106,1316 2106,1316 2106,1317 2107,1318 2107,1318 2108,1318 2109,1319 L 2109,1319 C 2116,1319 2123,1319 2131,1319 2139,1319 2147,1319 2155,1319 Z M 2191,1319 L 2191,1319 C 2199,1319 2207,1319 2214,1319 2222,1318 2229,1318 2236,1318 L 2236,1318 C 2237,1318 2237,1318 2237,1318 2238,1317 2238,1317 2238,1317 2239,1316 2240,1315 2240,1315 2241,1314 2241,1313 2241,1312 2242,1311 2242,1311 2242,1311 2242,1310 2242,1310 2242,1310 L 2242,1310 C 2242,1309 2242,1308 2241,1307 2242,1305 2242,1304 2242,1303 2243,1300 2243,1298 2243,1296 2243,1295 2243,1294 2243,1293 2243,1292 2243,1291 2242,1290 2242,1289 2242,1288 2241,1288 2241,1287 2241,1287 2240,1287 2240,1286 2240,1286 2239,1286 2239,1286 2238,1286 2237,1286 L 2237,1286 C 2235,1285 2233,1285 2231,1285 2230,1284 2228,1284 2226,1284 2222,1284 2218,1284 2214,1284 2210,1284 2206,1284 2202,1285 2199,1285 2195,1285 2191,1285 L 2191,1285 C 2191,1296 2191,1307 2191,1319 Z M 2155,1355 L 2155,1355 C 2147,1355 2139,1355 2131,1355 2123,1355 2116,1355 2109,1355 L 2109,1355 C 2108,1355 2107,1355 2107,1355 2106,1355 2106,1355 2106,1356 2105,1356 2104,1357 2104,1358 2104,1358 2104,1358 2104,1359 L 2104,1359 C 2104,1363 2104,1368 2104,1373 2104,1378 2104,1383 2104,1388 L 2104,1388 C 2121,1388 2138,1388 2155,1388 L 2155,1388 C 2155,1377 2155,1366 2155,1355 Z M 2191,1355 L 2191,1355 C 2191,1366 2191,1377 2191,1388 L 2191,1388 C 2208,1388 2225,1388 2242,1388 L 2242,1388 C 2242,1383 2242,1378 2242,1374 2242,1369 2242,1364 2242,1360 L 2242,1360 C 2242,1359 2242,1359 2241,1359 2241,1358 2241,1357 2240,1357 2240,1356 2239,1355 2238,1355 2238,1355 2238,1355 2237,1355 L 2237,1355 C 2230,1355 2222,1355 2214,1355 2207,1355 2199,1355 2191,1355 Z M 2155,1424 L 2155,1424 C 2147,1424 2139,1424 2131,1424 2124,1424 2117,1424 2110,1424 L 2110,1424 C 2109,1425 2108,1425 2108,1425 2107,1426 2106,1426 2106,1426 2105,1427 2105,1427 2105,1427 2104,1428 2104,1429 2104,1429 L 2104,1429 C 2104,1434 2104,1439 2104,1443 2104,1448 2104,1453 2104,1457 L 2104,1457 C 2121,1457 2138,1457 2155,1457 L 2155,1457 C 2155,1446 2155,1435 2155,1424 Z M 2191,1457 L 2191,1457 C 2208,1457 2225,1457 2242,1457 L 2242,1457 C 2242,1453 2242,1448 2242,1443 2242,1439 2242,1434 2242,1429 L 2242,1429 C 2242,1429 2242,1428 2241,1427 2241,1427 2241,1427 2240,1426 2240,1426 2240,1426 2239,1425 2239,1425 2238,1425 2237,1424 L 2237,1424 C 2230,1424 2222,1424 2214,1424 2207,1424 2199,1424 2191,1424 L 2191,1424 C 2191,1435 2191,1446 2191,1457 Z M 2067,1457 L 2067,1457 C 2067,1446 2067,1435 2067,1424 L 2067,1424 C 2053,1424 2039,1424 2026,1424 L 2026,1424 C 2027,1435 2029,1446 2031,1457 L 2031,1457 C 2043,1457 2055,1457 2067,1457 Z M 2278,1424 L 2278,1424 C 2278,1435 2278,1446 2278,1457 L 2278,1457 C 2291,1457 2303,1457 2315,1457 L 2315,1457 C 2317,1446 2319,1435 2320,1424 L 2320,1424 C 2306,1424 2292,1424 2278,1424 Z"/>
    </g>
   </g>
  </g>
  <g class="Group">
   <g class="com.sun.star.drawing.ClosedBezierShape">
    <g id="id7">
     <rect class="BoundingBox" stroke="none" fill="none" x="3234" y="1634" width="62" height="101"/>
     <path fill="rgb(250,117,3)" stroke="none" d="M 3234,1634 L 3260,1634 C 3271,1634 3280,1637 3286,1643 3292,1648 3295,1656 3295,1667 3295,1677 3292,1686 3286,1691 3280,1697 3271,1700 3260,1700 L 3250,1700 3250,1734 3234,1734 3234,1634 Z M 3259,1686 C 3272,1686 3278,1680 3278,1667 3278,1654 3272,1648 3259,1648 L 3250,1648 3250,1686 3259,1686 Z"/>
    </g>
   </g>
   <g class="com.sun.star.drawing.ClosedBezierShape">
    <g id="id8">
     <rect class="BoundingBox" stroke="none" fill="none" x="3426" y="1634" width="66" height="101"/>
     <path fill="rgb(250,117,3)" stroke="none" d="M 3426,1634 L 3452,1634 C 3463,1634 3471,1637 3478,1642 3484,1647 3487,1655 3487,1665 3487,1671 3485,1676 3482,1680 3480,1685 3476,1689 3472,1691 L 3491,1734 3473,1734 3456,1696 C 3455,1696 3454,1696 3452,1696 L 3442,1696 3442,1734 3426,1734 3426,1634 Z M 3451,1682 C 3458,1682 3463,1681 3466,1678 3469,1675 3470,1671 3470,1665 3470,1659 3469,1655 3466,1652 3463,1649 3458,1648 3451,1648 L 3442,1648 3442,1682 3451,1682 Z"/>
    </g>
   </g>
   <g class="com.sun.star.drawing.ClosedBezierShape">
    <g id="id9">
     <rect class="BoundingBox" stroke="none" fill="none" x="3616" y="1632" width="87" height="104"/>
     <path fill="rgb(250,117,3)" stroke="none" d="M 3658,1735 C 3650,1735 3643,1733 3637,1729 3630,1724 3625,1718 3622,1711 3618,1703 3616,1694 3616,1684 3616,1674 3618,1665 3622,1657 3625,1650 3630,1644 3637,1639 3643,1635 3650,1633 3658,1633 3667,1633 3675,1635 3681,1640 3688,1644 3693,1650 3696,1658 3700,1665 3702,1674 3702,1684 3702,1694 3700,1703 3696,1710 3693,1718 3688,1724 3681,1728 3675,1733 3667,1735 3658,1735 Z M 3658,1720 C 3667,1720 3674,1717 3678,1710 3683,1703 3685,1695 3685,1684 3685,1673 3683,1665 3678,1658 3674,1651 3667,1648 3658,1648 3650,1648 3644,1651 3640,1658 3635,1664 3633,1673 3633,1684 3633,1695 3635,1704 3640,1710 3644,1717 3650,1720 3658,1720 Z"/>
    </g>
   </g>
   <g class="com.sun.star.drawing.ClosedBezierShape">
    <g id="id10">
     <rect class="BoundingBox" stroke="none" fill="none" x="3829" y="1632" width="70" height="104"/>
     <path fill="rgb(250,117,3)" stroke="none" d="M 3875,1735 C 3865,1735 3857,1733 3851,1729 3844,1725 3839,1719 3835,1711 3831,1703 3829,1694 3829,1684 3829,1674 3831,1665 3835,1657 3839,1650 3844,1644 3851,1639 3858,1635 3865,1633 3874,1633 3882,1633 3890,1635 3897,1638 L 3896,1652 C 3888,1649 3882,1647 3877,1647 3870,1647 3865,1649 3860,1652 3856,1655 3852,1659 3850,1665 3847,1670 3846,1677 3846,1684 3846,1691 3847,1698 3850,1703 3852,1709 3856,1713 3860,1716 3865,1719 3870,1721 3877,1721 3883,1721 3889,1720 3896,1717 L 3897,1730 C 3890,1733 3883,1735 3875,1735 Z"/>
    </g>
   </g>
   <g class="com.sun.star.drawing.ClosedBezierShape">
    <g id="id11">
     <rect class="BoundingBox" stroke="none" fill="none" x="4026" y="1634" width="75" height="101"/>
     <path fill="rgb(250,117,3)" stroke="none" d="M 4026,1634 C 4031,1634 4037,1634 4042,1634 4042,1648 4042,1661 4042,1675 4056,1675 4070,1675 4084,1675 4084,1661 4084,1648 4084,1634 4089,1634 4094,1634 4099,1634 4099,1667 4099,1701 4099,1734 4094,1734 4089,1734 4084,1734 4084,1719 4084,1704 4084,1689 4070,1689 4056,1689 4042,1689 4042,1704 4042,1719 4042,1734 4037,1734 4031,1734 4026,1734 4026,1701 4026,1667 4026,1634 Z"/>
    </g>
   </g>
   <g class="com.sun.star.drawing.ClosedBezierShape">
    <g id="id12">
     <rect class="BoundingBox" stroke="none" fill="none" x="4235" y="1634" width="58" height="101"/>
     <path fill="rgb(250,117,3)" stroke="none" d="M 4235,1634 C 4254,1634 4272,1634 4290,1634 4290,1639 4290,1643 4290,1648 4277,1648 4264,1648 4251,1648 4251,1657 4251,1666 4251,1675 4261,1675 4272,1675 4282,1675 4282,1680 4282,1684 4282,1689 4272,1689 4261,1689 4251,1689 4251,1699 4251,1710 4251,1720 4264,1720 4278,1720 4291,1720 4291,1725 4291,1729 4291,1734 4273,1734 4254,1734 4235,1734 4235,1701 4235,1667 4235,1634 Z"/>
    </g>
   </g>
   <g class="com.sun.star.drawing.ClosedBezierShape">
    <g id="id13">
     <rect class="BoundingBox" stroke="none" fill="none" x="4568" y="1634" width="77" height="101"/>
     <path fill="rgb(250,117,3)" stroke="none" d="M 4568,1634 L 4600,1634 C 4609,1634 4616,1636 4623,1640 4630,1644 4635,1650 4638,1658 4642,1665 4644,1674 4644,1684 4644,1694 4642,1703 4638,1710 4635,1718 4630,1724 4623,1728 4617,1732 4609,1734 4600,1734 L 4568,1734 4568,1634 Z M 4598,1720 C 4607,1720 4615,1717 4619,1711 4624,1704 4627,1696 4627,1684 4627,1673 4624,1664 4619,1657 4614,1651 4607,1648 4598,1648 L 4584,1648 4584,1720 4598,1720 Z"/>
    </g>
   </g>
   <g class="com.sun.star.drawing.ClosedBezierShape">
    <g id="id14">
     <rect class="BoundingBox" stroke="none" fill="none" x="4773" y="1634" width="58" height="101"/>
     <path fill="rgb(250,117,3)" stroke="none" d="M 4773,1634 C 4792,1634 4810,1634 4828,1634 4828,1639 4828,1643 4828,1648 4815,1648 4802,1648 4789,1648 4789,1657 4789,1666 4789,1675 4799,1675 4810,1675 4820,1675 4820,1680 4820,1684 4820,1689 4810,1689 4799,1689 4789,1689 4789,1699 4789,1710 4789,1720 4802,1720 4816,1720 4829,1720 4829,1725 4829,1729 4829,1734 4811,1734 4792,1734 4773,1734 4773,1701 4773,1667 4773,1634 Z"/>
    </g>
   </g>
   <g class="com.sun.star.drawing.ClosedBezierShape">
    <g id="id15">
     <rect class="BoundingBox" stroke="none" fill="none" x="5098" y="1634" width="81" height="101"/>
     <path fill="rgb(250,117,3)" stroke="none" d="M 5177,1634 C 5167,1667 5157,1701 5146,1734 5141,1734 5135,1734 5129,1734 5119,1701 5108,1667 5098,1634 5104,1634 5109,1634 5114,1634 5122,1661 5130,1688 5138,1716 5146,1688 5153,1661 5161,1634 5167,1634 5172,1634 5177,1634 Z"/>
    </g>
   </g>
   <g class="com.sun.star.drawing.ClosedBezierShape">
    <g id="id16">
     <rect class="BoundingBox" stroke="none" fill="none" x="5297" y="1632" width="87" height="104"/>
     <path fill="rgb(250,117,3)" stroke="none" d="M 5339,1735 C 5331,1735 5324,1733 5318,1729 5311,1724 5306,1718 5303,1711 5299,1703 5297,1694 5297,1684 5297,1674 5299,1665 5303,1657 5306,1650 5311,1644 5318,1639 5324,1635 5331,1633 5339,1633 5348,1633 5356,1635 5362,1640 5369,1644 5374,1650 5377,1658 5381,1665 5383,1674 5383,1684 5383,1694 5381,1703 5377,1710 5374,1718 5369,1724 5362,1728 5356,1733 5348,1735 5339,1735 Z M 5339,1720 C 5348,1720 5355,1717 5359,1710 5364,1703 5366,1695 5366,1684 5366,1673 5364,1665 5359,1658 5355,1651 5348,1648 5339,1648 5331,1648 5325,1651 5321,1658 5316,1664 5314,1673 5314,1684 5314,1695 5316,1704 5321,1710 5325,1717 5331,1720 5339,1720 Z"/>
    </g>
   </g>
   <g class="com.sun.star.drawing.ClosedBezierShape">
    <g id="id17">
     <rect class="BoundingBox" stroke="none" fill="none" x="5514" y="1634" width="74" height="103"/>
     <path fill="rgb(250,117,3)" stroke="none" d="M 5550,1735 C 5538,1735 5529,1731 5523,1724 5517,1717 5514,1707 5514,1694 L 5514,1634 5530,1634 5530,1690 C 5530,1696 5530,1702 5531,1707 5532,1711 5534,1715 5537,1717 5540,1720 5544,1721 5550,1721 5556,1721 5560,1720 5563,1717 5566,1714 5568,1711 5569,1706 5570,1702 5571,1696 5571,1690 L 5571,1634 5587,1634 5587,1694 C 5587,1707 5584,1717 5578,1724 5572,1731 5562,1735 5550,1735 Z"/>
    </g>
   </g>
   <g class="com.sun.star.drawing.ClosedBezierShape">
    <g id="id18">
     <rect class="BoundingBox" stroke="none" fill="none" x="5715" y="1632" width="66" height="104"/>
     <path fill="rgb(250,117,3)" stroke="none" d="M 5744,1735 C 5740,1735 5735,1734 5730,1733 5725,1732 5720,1731 5717,1729 L 5719,1714 C 5724,1716 5728,1718 5733,1719 5737,1720 5741,1721 5746,1721 5751,1721 5755,1720 5758,1718 5761,1716 5763,1712 5763,1708 5763,1705 5762,1703 5761,1701 5759,1699 5757,1697 5754,1695 5752,1693 5748,1691 5742,1689 5736,1686 5731,1684 5728,1681 5724,1679 5721,1676 5719,1673 5717,1669 5716,1665 5716,1660 5716,1654 5717,1650 5720,1646 5723,1641 5726,1638 5732,1636 5737,1634 5742,1633 5749,1633 5754,1633 5758,1634 5763,1635 5767,1636 5771,1637 5775,1639 L 5773,1655 C 5764,1650 5756,1647 5748,1647 5743,1647 5739,1648 5737,1650 5734,1652 5733,1655 5733,1659 5733,1662 5733,1665 5735,1667 5736,1669 5739,1670 5741,1672 5744,1673 5748,1675 5754,1678 5763,1682 5770,1686 5774,1691 5778,1695 5780,1701 5780,1708 5780,1716 5777,1723 5770,1728 5764,1733 5755,1735 5744,1735 Z"/>
    </g>
   </g>
  </g>
  <g class="Group">
   <g class="com.sun.star.drawing.ClosedBezierShape">
    <g id="id19">
     <rect class="BoundingBox" stroke="none" fill="none" x="2829" y="1030" width="224" height="309"/>
     <path fill="rgb(207,225,249)" stroke="none" d="M 2834,1033 C 2836,1031 2846,1030 2865,1031 L 2895,1032 2895,1274 C 2947,1276 2999,1277 3051,1279 L 3051,1336 2941,1337 C 2898,1338 2868,1338 2853,1337 2838,1336 2831,1335 2830,1332 2829,1324 2829,1273 2830,1178 2832,1083 2833,1035 2834,1033 Z"/>
    </g>
   </g>
   <g class="com.sun.star.drawing.ClosedBezierShape">
    <g id="id20">
     <rect class="BoundingBox" stroke="none" fill="none" x="3122" y="1011" width="368" height="335"/>
     <path fill="rgb(207,225,249)" stroke="none" d="M 3255,1020 C 3274,1015 3290,1012 3302,1012 3314,1012 3330,1014 3350,1018 3391,1027 3424,1043 3448,1067 3464,1084 3475,1100 3480,1114 3486,1129 3489,1150 3489,1177 3489,1197 3488,1211 3487,1219 3485,1227 3482,1237 3476,1248 3460,1281 3432,1308 3391,1329 3377,1337 3366,1341 3358,1343 3349,1344 3333,1345 3307,1345 3280,1345 3263,1344 3255,1343 3247,1341 3234,1336 3215,1327 3184,1311 3162,1293 3147,1271 3132,1249 3124,1221 3123,1188 3122,1162 3124,1141 3130,1125 3136,1108 3146,1091 3162,1074 3175,1059 3189,1048 3202,1040 3215,1032 3233,1026 3255,1020 Z M 3344,1083 C 3316,1076 3289,1076 3264,1083 3239,1091 3219,1104 3204,1124 3199,1131 3195,1138 3193,1144 3191,1150 3190,1161 3189,1174 3188,1197 3191,1216 3198,1229 3205,1243 3218,1255 3236,1265 3248,1271 3257,1275 3264,1277 3272,1278 3285,1279 3304,1279 3323,1279 3337,1278 3344,1277 3352,1275 3361,1271 3372,1265 3390,1255 3402,1244 3411,1232 3419,1219 3423,1203 3424,1183 3426,1171 3425,1161 3424,1155 3423,1149 3419,1141 3414,1132 3399,1107 3376,1091 3344,1083 Z"/>
    </g>
   </g>
   <g class="com.sun.star.drawing.ClosedBezierShape">
    <g id="id21">
     <rect class="BoundingBox" stroke="none" fill="none" x="3559" y="1030" width="289" height="310"/>
     <path fill="rgb(207,225,249)" stroke="none" d="M 3679,1040 C 3699,1034 3715,1031 3728,1031 3740,1031 3756,1033 3776,1037 3790,1041 3806,1046 3822,1054 3839,1062 3847,1068 3847,1072 3847,1074 3841,1082 3829,1096 L 3811,1116 3789,1106 C 3774,1100 3755,1097 3734,1096 3712,1096 3694,1099 3680,1105 3666,1111 3654,1120 3643,1132 3636,1139 3631,1146 3629,1151 3627,1157 3626,1166 3625,1181 3624,1199 3626,1213 3630,1223 3635,1234 3644,1244 3658,1255 3675,1267 3698,1274 3728,1275 3757,1276 3781,1271 3798,1259 L 3816,1247 3831,1265 C 3841,1276 3846,1284 3846,1290 3847,1296 3842,1302 3834,1308 3813,1322 3787,1332 3757,1336 3726,1340 3699,1339 3675,1331 3646,1322 3622,1308 3603,1289 3584,1270 3571,1247 3564,1220 3554,1180 3560,1143 3581,1109 3603,1075 3636,1052 3679,1040 Z"/>
    </g>
   </g>
   <g class="com.sun.star.drawing.ClosedBezierShape">
    <g id="id22">
     <rect class="BoundingBox" stroke="none" fill="none" x="3915" y="1030" width="354" height="314"/>
     <path fill="rgb(207,225,249)" stroke="none" d="M 4047,1033 C 4049,1031 4059,1030 4077,1030 4092,1030 4102,1032 4107,1036 4112,1039 4119,1049 4127,1066 4130,1072 4147,1105 4179,1165 4241,1279 4270,1338 4268,1340 4266,1342 4256,1343 4238,1343 4223,1343 4213,1341 4208,1338 4203,1335 4198,1327 4191,1313 4187,1306 4184,1302 4180,1300 4177,1298 4168,1297 4155,1296 4133,1295 4107,1298 4077,1304 4047,1310 4022,1317 4003,1327 3980,1337 3959,1343 3942,1343 3924,1343 3916,1342 3916,1340 3916,1338 3943,1286 3999,1184 4002,1178 4007,1169 4013,1158 4037,1113 4050,1087 4054,1078 4057,1070 4057,1062 4054,1056 4053,1055 4053,1053 4052,1052 4047,1041 4045,1035 4047,1033 Z M 4123,1183 C 4106,1151 4096,1135 4093,1135 4091,1135 4079,1155 4057,1195 4035,1235 4025,1257 4027,1259 4028,1260 4043,1257 4071,1250 4098,1243 4117,1239 4127,1239 4137,1238 4143,1237 4145,1236 4147,1233 4139,1216 4123,1183 Z"/>
    </g>
   </g>
   <g class="com.sun.star.drawing.ClosedBezierShape">
    <g id="id23">
     <rect class="BoundingBox" stroke="none" fill="none" x="4339" y="1030" width="224" height="309"/>
     <path fill="rgb(207,225,249)" stroke="none" d="M 4344,1033 C 4346,1031 4356,1030 4375,1031 L 4405,1032 4405,1274 C 4457,1276 4509,1277 4561,1279 L 4561,1336 4451,1337 C 4408,1338 4378,1338 4363,1337 4348,1336 4341,1335 4340,1332 4339,1324 4339,1273 4340,1178 4342,1083 4343,1035 4344,1033 Z"/>
    </g>
   </g>
   <g class="com.sun.star.drawing.ClosedBezierShape">
    <g id="id24">
     <rect class="BoundingBox" stroke="none" fill="none" x="4632" y="1163" width="198" height="32"/>
     <path fill="rgb(207,225,249)" stroke="none" d="M 4634,1169 C 4635,1166 4642,1165 4654,1164 4666,1163 4692,1163 4732,1164 L 4829,1165 4829,1194 4732,1194 C 4686,1194 4659,1193 4649,1192 4639,1191 4634,1189 4633,1185 4632,1179 4632,1174 4634,1169 Z"/>
    </g>
   </g>
   <g class="com.sun.star.drawing.ClosedBezierShape">
    <g id="id25">
     <rect class="BoundingBox" stroke="none" fill="none" x="4899" y="1034" width="345" height="310"/>
     <path fill="rgb(207,225,249)" stroke="none" d="M 4900,1039 C 4902,1036 4936,1035 5003,1035 5050,1035 5085,1036 5107,1039 5128,1041 5148,1045 5165,1052 5175,1055 5186,1063 5198,1075 5210,1087 5220,1099 5227,1111 5232,1122 5236,1131 5238,1140 5240,1148 5241,1161 5242,1178 5245,1242 5224,1288 5179,1317 5162,1327 5143,1334 5122,1338 5101,1341 5070,1343 5030,1342 L 4961,1340 C 4960,1260 4958,1179 4957,1099 L 4939,1096 C 4930,1095 4925,1093 4921,1090 4918,1087 4914,1080 4909,1069 4901,1052 4898,1042 4900,1039 Z M 5135,1110 C 5121,1103 5101,1099 5073,1097 5044,1094 5030,1096 5028,1102 5026,1106 5025,1136 5026,1194 L 5028,1279 5063,1280 C 5091,1282 5114,1278 5133,1269 5152,1260 5165,1246 5171,1227 5176,1217 5177,1202 5176,1185 5175,1167 5172,1153 5167,1141 5164,1133 5160,1127 5155,1123 5151,1119 5144,1114 5135,1110 Z"/>
    </g>
   </g>
   <g class="com.sun.star.drawing.ClosedBezierShape">
    <g id="id26">
     <rect class="BoundingBox" stroke="none" fill="none" x="5311" y="1029" width="318" height="308"/>
     <path fill="rgb(207,225,249)" stroke="none" d="M 5314,1035 C 5317,1031 5351,1030 5418,1030 5484,1030 5524,1032 5538,1035 5558,1040 5574,1052 5587,1070 5599,1088 5605,1108 5604,1130 5604,1151 5596,1170 5581,1185 5571,1195 5564,1200 5561,1200 5557,1200 5552,1204 5547,1210 5543,1214 5541,1217 5541,1220 5542,1222 5544,1227 5549,1235 5556,1248 5563,1256 5571,1261 5578,1266 5589,1270 5602,1271 L 5627,1274 5627,1336 5596,1336 C 5574,1336 5556,1332 5544,1324 5532,1316 5519,1300 5503,1276 5502,1273 5500,1270 5497,1265 5490,1255 5486,1248 5483,1244 5481,1240 5478,1235 5474,1230 5470,1225 5467,1222 5466,1221 5465,1220 5463,1218 5459,1217 5456,1215 5453,1215 5452,1215 5450,1215 5446,1215 5441,1215 5439,1215 5437,1215 5436,1215 5418,1215 5404,1218 5393,1224 L 5376,1233 C 5374,1267 5373,1301 5371,1336 L 5312,1336 5312,1187 C 5312,1089 5313,1038 5314,1035 Z M 5527,1102 C 5521,1097 5514,1094 5506,1093 5497,1092 5478,1092 5447,1092 5402,1092 5379,1093 5377,1095 5375,1096 5374,1108 5374,1131 5374,1147 5374,1156 5375,1159 5376,1161 5379,1162 5384,1160 5391,1158 5415,1156 5458,1154 5484,1152 5501,1151 5510,1150 5519,1148 5526,1146 5530,1142 5537,1136 5540,1129 5539,1122 5539,1114 5535,1108 5527,1102 Z"/>
    </g>
   </g>
   <g class="com.sun.star.drawing.ClosedBezierShape">
    <g id="id27">
     <rect class="BoundingBox" stroke="none" fill="none" x="5697" y="1035" width="61" height="307"/>
     <path fill="rgb(207,225,249)" stroke="none" d="M 5699,1040 C 5700,1036 5710,1035 5729,1036 L 5756,1037 5756,1340 5699,1340 5698,1194 C 5697,1095 5698,1044 5699,1040 Z"/>
    </g>
   </g>
   <g class="com.sun.star.drawing.ClosedBezierShape">
    <g id="id28">
     <rect class="BoundingBox" stroke="none" fill="none" x="5824" y="1029" width="341" height="311"/>
     <path fill="rgb(207,225,249)" stroke="none" d="M 5825,1035 C 5827,1032 5837,1030 5856,1030 5865,1030 5871,1030 5875,1031 5879,1031 5883,1033 5887,1037 5891,1042 5895,1046 5897,1052 5900,1058 5904,1068 5910,1082 5914,1093 5919,1105 5925,1117 5931,1129 5937,1142 5941,1155 5952,1181 5962,1206 5974,1230 5985,1255 5991,1267 5993,1267 5996,1267 6001,1258 6007,1242 6018,1217 6025,1201 6029,1194 6029,1194 6041,1164 6067,1106 6085,1064 6096,1040 6099,1036 6102,1031 6114,1029 6134,1030 6154,1030 6164,1032 6164,1037 6164,1043 6153,1069 6132,1115 6125,1130 6114,1154 6100,1185 6087,1217 6078,1237 6074,1246 6056,1284 6047,1305 6046,1306 L 6032,1338 5994,1338 C 5993,1338 5993,1338 5991,1338 5983,1338 5978,1338 5974,1338 5971,1338 5967,1337 5963,1336 5958,1334 5955,1333 5954,1332 5952,1331 5950,1327 5946,1322 5943,1316 5941,1312 5939,1307 5937,1302 5934,1295 5930,1284 5928,1282 5928,1280 5927,1279 5916,1250 5907,1229 5901,1217 5898,1210 5891,1196 5882,1174 5872,1153 5865,1136 5860,1124 5858,1117 5850,1099 5836,1070 5827,1049 5823,1038 5825,1035 Z"/>
    </g>
   </g>
   <g class="com.sun.star.drawing.ClosedBezierShape">
    <g id="id29">
     <rect class="BoundingBox" stroke="none" fill="none" x="6231" y="1040" width="255" height="307"/>
     <path fill="rgb(207,225,249)" stroke="none" d="M 6233,1045 C 6234,1043 6243,1041 6259,1041 6276,1040 6308,1040 6355,1040 L 6475,1042 6475,1099 C 6415,1100 6355,1102 6295,1103 L 6294,1132 C 6293,1151 6293,1163 6295,1166 6297,1169 6304,1168 6316,1164 6330,1160 6353,1158 6384,1159 L 6432,1160 6432,1217 6374,1220 C 6355,1221 6340,1222 6330,1223 6320,1225 6312,1227 6306,1230 6300,1233 6296,1237 6295,1242 6293,1246 6293,1253 6294,1261 L 6295,1283 C 6358,1285 6421,1287 6484,1288 L 6484,1345 6233,1345 6232,1198 C 6231,1100 6232,1049 6233,1045 Z"/>
    </g>
   </g>
  </g>
 </g>
</svg>